<mxfile host="app.diagrams.net" modified="2020-11-22T03:11:05.651Z" agent="5.0 (Windows NT 10.0; Win64; x64) AppleWebKit/537.36 (KHTML, like Gecko) Chrome/87.0.4280.66 Safari/537.36" etag="AbylJkaUFgIdIPh1RZ1T" version="13.10.0" type="github">
  <diagram id="C5RBs43oDa-KdzZeNtuy" name="Page-1">
    <mxGraphModel dx="862" dy="425" grid="1" gridSize="10" guides="1" tooltips="1" connect="1" arrows="1" fold="1" page="1" pageScale="1" pageWidth="827" pageHeight="1169" math="0" shadow="0">
      <root>
        <mxCell id="WIyWlLk6GJQsqaUBKTNV-0" />
        <mxCell id="WIyWlLk6GJQsqaUBKTNV-1" parent="WIyWlLk6GJQsqaUBKTNV-0" />
        <mxCell id="mKtIJFHs_v0ofifBaLAN-3" value="" style="edgeStyle=orthogonalEdgeStyle;rounded=0;orthogonalLoop=1;jettySize=auto;html=1;" edge="1" parent="WIyWlLk6GJQsqaUBKTNV-1" source="mKtIJFHs_v0ofifBaLAN-1" target="mKtIJFHs_v0ofifBaLAN-2">
          <mxGeometry relative="1" as="geometry" />
        </mxCell>
        <mxCell id="mKtIJFHs_v0ofifBaLAN-1" value="Start" style="ellipse;whiteSpace=wrap;html=1;" vertex="1" parent="WIyWlLk6GJQsqaUBKTNV-1">
          <mxGeometry x="190" y="40" width="120" height="80" as="geometry" />
        </mxCell>
        <mxCell id="mKtIJFHs_v0ofifBaLAN-7" value="" style="edgeStyle=orthogonalEdgeStyle;rounded=0;orthogonalLoop=1;jettySize=auto;html=1;" edge="1" parent="WIyWlLk6GJQsqaUBKTNV-1" source="mKtIJFHs_v0ofifBaLAN-2" target="mKtIJFHs_v0ofifBaLAN-6">
          <mxGeometry relative="1" as="geometry" />
        </mxCell>
        <mxCell id="mKtIJFHs_v0ofifBaLAN-2" value="Const limit = 100" style="whiteSpace=wrap;html=1;" vertex="1" parent="WIyWlLk6GJQsqaUBKTNV-1">
          <mxGeometry x="190" y="150" width="120" height="60" as="geometry" />
        </mxCell>
        <mxCell id="mKtIJFHs_v0ofifBaLAN-9" value="" style="edgeStyle=orthogonalEdgeStyle;rounded=0;orthogonalLoop=1;jettySize=auto;html=1;" edge="1" parent="WIyWlLk6GJQsqaUBKTNV-1" source="mKtIJFHs_v0ofifBaLAN-6" target="mKtIJFHs_v0ofifBaLAN-8">
          <mxGeometry relative="1" as="geometry" />
        </mxCell>
        <mxCell id="mKtIJFHs_v0ofifBaLAN-27" value="" style="edgeStyle=orthogonalEdgeStyle;rounded=0;orthogonalLoop=1;jettySize=auto;html=1;" edge="1" parent="WIyWlLk6GJQsqaUBKTNV-1" source="mKtIJFHs_v0ofifBaLAN-6" target="mKtIJFHs_v0ofifBaLAN-8">
          <mxGeometry relative="1" as="geometry" />
        </mxCell>
        <mxCell id="mKtIJFHs_v0ofifBaLAN-6" value="x = 2" style="whiteSpace=wrap;html=1;" vertex="1" parent="WIyWlLk6GJQsqaUBKTNV-1">
          <mxGeometry x="190" y="240" width="120" height="60" as="geometry" />
        </mxCell>
        <mxCell id="mKtIJFHs_v0ofifBaLAN-21" value="" style="edgeStyle=orthogonalEdgeStyle;rounded=0;orthogonalLoop=1;jettySize=auto;html=1;" edge="1" parent="WIyWlLk6GJQsqaUBKTNV-1" source="mKtIJFHs_v0ofifBaLAN-8" target="mKtIJFHs_v0ofifBaLAN-20">
          <mxGeometry relative="1" as="geometry" />
        </mxCell>
        <mxCell id="mKtIJFHs_v0ofifBaLAN-30" value="" style="edgeStyle=orthogonalEdgeStyle;rounded=0;orthogonalLoop=1;jettySize=auto;html=1;" edge="1" parent="WIyWlLk6GJQsqaUBKTNV-1" source="mKtIJFHs_v0ofifBaLAN-8" target="mKtIJFHs_v0ofifBaLAN-29">
          <mxGeometry relative="1" as="geometry" />
        </mxCell>
        <mxCell id="mKtIJFHs_v0ofifBaLAN-8" value="While x &amp;lt;= limit" style="rhombus;whiteSpace=wrap;html=1;" vertex="1" parent="WIyWlLk6GJQsqaUBKTNV-1">
          <mxGeometry x="195" y="350" width="110" height="110" as="geometry" />
        </mxCell>
        <mxCell id="mKtIJFHs_v0ofifBaLAN-23" value="" style="edgeStyle=orthogonalEdgeStyle;rounded=0;orthogonalLoop=1;jettySize=auto;html=1;" edge="1" parent="WIyWlLk6GJQsqaUBKTNV-1" source="mKtIJFHs_v0ofifBaLAN-20" target="mKtIJFHs_v0ofifBaLAN-22">
          <mxGeometry relative="1" as="geometry" />
        </mxCell>
        <mxCell id="mKtIJFHs_v0ofifBaLAN-20" value="Print: x" style="shape=parallelogram;perimeter=parallelogramPerimeter;whiteSpace=wrap;html=1;fixedSize=1;" vertex="1" parent="WIyWlLk6GJQsqaUBKTNV-1">
          <mxGeometry x="370" y="375" width="120" height="60" as="geometry" />
        </mxCell>
        <mxCell id="mKtIJFHs_v0ofifBaLAN-25" style="edgeStyle=orthogonalEdgeStyle;orthogonalLoop=1;jettySize=auto;html=1;exitX=0.5;exitY=0;exitDx=0;exitDy=0;elbow=vertical;rounded=0;" edge="1" parent="WIyWlLk6GJQsqaUBKTNV-1" source="mKtIJFHs_v0ofifBaLAN-22">
          <mxGeometry relative="1" as="geometry">
            <mxPoint x="250" y="330" as="targetPoint" />
            <Array as="points">
              <mxPoint x="620" y="330" />
            </Array>
          </mxGeometry>
        </mxCell>
        <mxCell id="mKtIJFHs_v0ofifBaLAN-22" value="x = x + 2" style="whiteSpace=wrap;html=1;" vertex="1" parent="WIyWlLk6GJQsqaUBKTNV-1">
          <mxGeometry x="560" y="375" width="120" height="60" as="geometry" />
        </mxCell>
        <mxCell id="mKtIJFHs_v0ofifBaLAN-28" value="Yes" style="text;html=1;strokeColor=none;fillColor=none;align=center;verticalAlign=middle;whiteSpace=wrap;rounded=0;" vertex="1" parent="WIyWlLk6GJQsqaUBKTNV-1">
          <mxGeometry x="320" y="380" width="40" height="20" as="geometry" />
        </mxCell>
        <mxCell id="mKtIJFHs_v0ofifBaLAN-29" value="End" style="ellipse;whiteSpace=wrap;html=1;" vertex="1" parent="WIyWlLk6GJQsqaUBKTNV-1">
          <mxGeometry x="190" y="500" width="120" height="80" as="geometry" />
        </mxCell>
        <mxCell id="mKtIJFHs_v0ofifBaLAN-31" value="No" style="text;html=1;strokeColor=none;fillColor=none;align=center;verticalAlign=middle;whiteSpace=wrap;rounded=0;" vertex="1" parent="WIyWlLk6GJQsqaUBKTNV-1">
          <mxGeometry x="210" y="460" width="40" height="20" as="geometry" />
        </mxCell>
      </root>
    </mxGraphModel>
  </diagram>
</mxfile>
